<svg xmlns="http://www.w3.org/2000/svg" width="615.164" height="503.097" viewBox="0 0 615.164 503.097">
  <g id="Grupo_114" data-name="Grupo 114" transform="translate(-822.272 -480.829)">
    <g id="Grupo_120" data-name="Grupo 120">
      <path id="Trazado_87" data-name="Trazado 87" d="M268.583,186.578A114.519,114.519,0,0,0,294.3,114.01C294.3,51.049,243.877,0,181.67,0,119.506,0,69.086,51.049,69.086,114.01A114.519,114.519,0,0,0,94.8,186.578,184.235,184.235,0,0,0,0,348.2C0,449.792,81.334,532.175,181.67,532.175c100.378,0,181.712-82.383,181.712-183.977a184.319,184.319,0,0,0-94.8-161.62" transform="translate(928.515 983.926) rotate(-107)" fill="#d53e4f" fill-rule="evenodd"/>
      <path id="Trazado_195" data-name="Trazado 195" d="M9829.858,3767.8h-35.147a4.5,4.5,0,0,1,0-9h35.147a4.5,4.5,0,0,1,0,9Z" transform="translate(-5668.085 -7417.692) rotate(30)"/>
      <path id="Trazado_196" data-name="Trazado 196" d="M35.147,4.5H0A4.5,4.5,0,0,1-4.5,0,4.5,4.5,0,0,1,0-4.5H35.147a4.5,4.5,0,0,1,4.5,4.5A4.5,4.5,0,0,1,35.147,4.5Z" transform="translate(956.739 732.344) rotate(120)"/>
      <path id="Trazado_197" data-name="Trazado 197" d="M9829.858,3767.8h-35.147a4.5,4.5,0,0,1,0-9h35.147a4.5,4.5,0,0,1,0,9Z" transform="translate(-5644.079 -7342.431) rotate(30)"/>
      <path id="Trazado_198" data-name="Trazado 198" d="M35.147,4.5H0A4.5,4.5,0,0,1-4.5,0,4.5,4.5,0,0,1,0-4.5H35.147a4.5,4.5,0,0,1,4.5,4.5A4.5,4.5,0,0,1,35.147,4.5Z" transform="translate(980.745 807.605) rotate(120)"/>
    </g>
  </g>
</svg>
