<svg xmlns="http://www.w3.org/2000/svg" width="17.894" height="14.64" viewBox="0 0 17.894 14.64"><g transform="translate(-1.5 -4.5)"><path d="M3.94,4.5H16.953a2.443,2.443,0,0,1,2.44,2.44V16.7a2.443,2.443,0,0,1-2.44,2.44H3.94A2.443,2.443,0,0,1,1.5,16.7V6.94A2.443,2.443,0,0,1,3.94,4.5ZM16.953,17.513a.814.814,0,0,0,.813-.813V6.94a.814.814,0,0,0-.813-.813H3.94a.814.814,0,0,0-.813.813V16.7a.814.814,0,0,0,.813.813Z" transform="translate(0)" fill="#66c2a5"/><path d="M10.447,14.82a.812.812,0,0,1-.466-.147L1.847,8.98A.813.813,0,1,1,2.78,7.647l7.667,5.367,7.667-5.367a.813.813,0,1,1,.933,1.333l-8.133,5.693A.812.812,0,0,1,10.447,14.82Z" transform="translate(0 -1.373)" fill="#66c2a5"/></g></svg>