<svg xmlns="http://www.w3.org/2000/svg" width="456.435" height="668.451" viewBox="0 0 456.435 668.451">
  <g id="Grupo_116" data-name="Grupo 116" transform="translate(-97.926 -59.538)">
    <path id="Trazado_87" data-name="Trazado 87" d="M405.857,234.891a143.844,143.844,0,0,0,32.3-91.15C438.154,64.656,374.823.535,296.687.535,218.6.535,155.273,64.656,155.273,143.741a143.845,143.845,0,0,0,32.3,91.15A231.413,231.413,0,0,0,68.5,437.9c0,127.61,102.162,231.089,228.191,231.089,126.082,0,228.243-103.479,228.243-231.089A231.518,231.518,0,0,0,405.857,234.891" transform="translate(29.43 59.003)" fill="#66c2a5" fill-rule="evenodd"/>
    <path id="Trazado_199" data-name="Trazado 199" d="M7258.375,3136s66.193,63.689,147.841,0" transform="translate(-7006.248 -2903.599)" fill="none" stroke="#000" stroke-linecap="round" stroke-width="8"/>
  </g>
</svg>
