<svg width="512" height="512" xmlns="http://www.w3.org/2000/svg">
 <defs>
  <clipPath id="a">
   <rect width="512" height="512" fill="none" id="svg_1" y="0" x="0"/>
  </clipPath>
 </defs>
 <g>
  <title>Layer 1</title>
  <g id="svg_2" stroke="null">
   <g clip-path="url(#a)" id="svg_3" stroke="null">
    <path d="m300.53561,466.58636a45.5989,45.46623 0 1 1 -45.60405,-46.03185a45.89801,45.76447 0 0 1 45.60405,46.03185" fill="#ffd875" fill-rule="evenodd" id="svg_4" stroke="null"/>
    <path d="m449.77117,405.90475a45.5989,45.46623 0 1 1 -45.62984,-46.03185a45.89801,45.76447 0 0 1 45.60405,46.03185" fill="#e5e284" fill-rule="evenodd" id="svg_5" stroke="null"/>
    <path d="m509.86664,255.23681a45.5989,45.46623 0 1 1 -45.60405,-46.03185a45.89801,45.76447 0 0 1 45.60405,46.03185" fill="#a4ca90" fill-rule="evenodd" id="svg_6" stroke="null"/>
    <path d="m451.83916,106.65141a45.5989,45.46623 0 1 1 -45.60405,-46.03185a45.89801,45.76447 0 0 1 45.60405,46.03185" fill="#60b393" fill-rule="evenodd" id="svg_7" stroke="null"/>
    <path d="m300.53561,45.96979a45.5989,45.46623 0 1 1 -91.19264,0a45.5989,45.46623 0 1 1 91.19264,0" fill="#1477b1" fill-rule="evenodd" id="svg_8" stroke="null"/>
    <path d="m149.22173,108.74424a45.3823,45.25026 0 0 1 -44.56232,46.03185a45.3823,45.25026 0 0 1 -44.56232,-46.03185a45.3823,45.25026 0 0 1 44.56232,-46.03185a45.3823,45.25026 0 0 1 44.56232,46.03185" fill="#c8273d" fill-rule="evenodd" id="svg_9" stroke="null"/>
    <path d="m91.19427,255.23681a45.5989,45.46623 0 1 1 -45.60405,-46.03185a45.89801,45.76447 0 0 1 45.60405,46.03185" fill="#e85533" fill-rule="evenodd" id="svg_10" stroke="null"/>
    <path d="m151.28972,408.01813a45.3823,45.25026 0 0 1 -44.56232,46.03185a46.19712,46.06271 0 0 1 0,-92.04314a45.3823,45.25026 0 0 1 44.56232,46.01129" fill="#f99d4b" fill-rule="evenodd" id="svg_11" stroke="null"/>
    <path d="m159.5823,259.41218a98.70135,98.41417 0 0 1 2.03705,-19.84841a92.26015,91.99172 0 0 0 -60.06451,86.81879a89.91884,89.65722 0 0 0 176.52168,26.41484a93.69382,93.42121 0 0 1 -23.15013,2.8847a95.96294,95.68373 0 0 1 -95.34409,-96.26992" fill="#f99d4b" fill-rule="evenodd" id="svg_12" stroke="null"/>
    <path d="m254.92639,355.67696a95.1017,94.825 0 0 1 -82.51327,-48.09383a91.18748,90.92217 0 1 0 162.81932,3.728a94.97793,94.70159 0 0 1 -80.30604,44.36582" fill="#ffd875" fill-rule="evenodd" id="svg_13" stroke="null"/>
    <path d="m347.37736,235.81519a97.89168,97.60686 0 0 1 2.89828,23.60727a95.1739,94.89699 0 0 1 -112.83174,94.61418a90.01682,89.75492 0 0 0 175.01065,-30.80617a91.16685,90.9016 0 0 0 -65.07719,-87.41527" fill="#e5e284" fill-rule="evenodd" id="svg_14" stroke="null"/>
    <path d="m351.31219,165.23507a88.85648,88.59795 0 0 0 -45.76908,12.60323a97.19032,96.90754 0 0 1 5.09519,159.65628a88.81522,88.55681 0 0 0 40.67389,9.80079a91.28031,91.01472 0 0 0 0,-182.06544" fill="#a4ca90" fill-rule="evenodd" id="svg_15" stroke="null"/>
    <path d="m410.38657,189.31027a90.04777,89.78577 0 0 0 -177.24883,-23.60727a94.78197,94.50619 0 0 1 21.80929,-2.54018a95.92168,95.64259 0 0 1 95.33893,96.2545a99.23253,98.9438 0 0 1 -1.35631,16.20268a91.23905,90.97359 0 0 0 61.47239,-86.30458" fill="#60b393" fill-rule="evenodd" id="svg_16" stroke="null"/>
    <path d="m254.93154,163.15767a94.89026,94.61418 0 0 1 79.16117,42.61752a91.79602,91.52893 0 0 0 9.96348,-41.57882a90.16122,89.89889 0 1 0 -180.31213,0a91.894,91.62663 0 0 0 10.87628,43.38883a94.97278,94.69645 0 0 1 80.3112,-44.42753" fill="#1477b1" fill-rule="evenodd" id="svg_17" stroke="null"/>
    <path d="m254.92639,163.15767a94.32299,94.04855 0 0 1 25.99684,3.64573a91.08434,90.81932 0 0 0 -179.36838,23.56099a92.31172,92.04314 0 0 0 59.60037,86.38686a98.66525,98.37817 0 0 1 -1.54712,-17.33908a95.95262,95.67344 0 0 1 95.3183,-96.2545" fill="#c8273d" fill-rule="evenodd" id="svg_18" stroke="null"/>
    <path d="m159.5823,259.41217a96.7365,96.45504 0 0 1 45.85159,-82.2732a89.01119,88.75221 0 0 0 -40.67389,-9.76994a91.28031,91.01472 0 0 0 0,182.06544a88.93899,88.68022 0 0 0 38.85344,-8.85979a96.74166,96.46018 0 0 1 -44.03115,-81.12651" fill="#e85533" fill-rule="evenodd" id="svg_19" stroke="null"/>
   </g>
  </g>
 </g>
</svg>