<svg xmlns="http://www.w3.org/2000/svg" xmlns:xlink="http://www.w3.org/1999/xlink" width="548.1" height="63.817" viewBox="0 0 548.1 63.817"><defs><clipPath id="a"><rect width="548.1" height="63.817" fill="none"/></clipPath></defs><path d="M0,0V62.818H12.462V42.377h.169l13.63,20.441h15.7L25.513,40.635l16.039-18.2H26.261l-13.8,15.957V0Z" transform="translate(0 0)" fill="#fff"/><g transform="translate(0 0)"><g clip-path="url(#a)"><path d="M22.034,4.648V24.673c0,4.074,0,10.387,6.482,10.387,5.232,0,7.476-3.239,7.476-9.972V4.648H48.46V45.032H36.495V39.549h-.169c-2.244,4.069-6.646,6.482-11.883,6.482-10.551,0-14.871-5.734-14.871-18.616V4.648Z" transform="translate(36.628 17.785)" fill="#fff"/><rect width="12.462" height="62.823" transform="translate(94.06 -0.005)" fill="#fff"/><path d="M23.12,24.106V14.134H31.1V2.169H43.561V14.134H54.531v9.972H43.561V38.315c0,4.986,1.747,6.733,5.9,6.733,2.413,0,4.407-.5,5.073-1.163V54.272A26.818,26.818,0,0,1,45.8,55.517c-9.721,0-14.707-4.653-14.707-11.883V24.106Z" transform="translate(88.47 8.299)" fill="#fff"/><path d="M43.4,4.648V24.673c0,4.074,0,10.387,6.482,10.387,5.232,0,7.476-3.239,7.476-9.972V4.648H69.824V45.032H57.859V39.549H57.69c-2.244,4.069-6.646,6.482-11.883,6.482-10.551,0-14.871-5.734-14.871-18.616V4.648Z" transform="translate(118.379 17.785)" fill="#fff"/><path d="M40.817,5.44H53.274v6.482h.169c2.664-4.9,6.154-7.481,11.719-7.481a16.031,16.031,0,0,1,4.069.42V16.242a19.2,19.2,0,0,0-5.314-.83c-8.9,0-10.643,4.735-10.643,13.046V45.824H40.817Z" transform="translate(156.189 16.993)" fill="#fff"/><path d="M61.581,17.6a7.645,7.645,0,1,1-7.645-7.645A7.574,7.574,0,0,1,61.581,17.6" transform="translate(177.132 38.078)" fill="#fff"/><path d="M78.26,20.148c0-4.571-3.823-7.23-7.978-7.23a13.316,13.316,0,0,0-10.136,4.822L53.5,10.924C58.152,6.435,64.967,4.442,71.28,4.442c13.958,0,18.447,6.9,18.447,20.276V45.825H78.26V40.757H78.1c-2.746,4.32-7.814,6.067-12.8,6.067-7.476,0-14.374-4.325-14.374-12.467,0-14.127,17.448-14.209,27.338-14.209M62.887,33.942c0,3.157,3.325,4.4,5.985,4.4,4.735,0,9.388-2.491,9.388-7.64V28.126H74.519c-3.736,0-11.632.579-11.632,5.816" transform="translate(194.856 16.997)" fill="#fff"/><path d="M74.863,7.746A7.228,7.228,0,1,1,67.637.516a7.234,7.234,0,0,1,7.225,7.23m-.994,53.1H61.406V20.459H73.868Z" transform="translate(231.151 1.974)" fill="#fff"/><path d="M135.8,22a13.177,13.177,0,0,0,2.959-8.35,12.958,12.958,0,1,0-25.914,0A13.177,13.177,0,0,0,115.8,22a20.908,20.908,0,1,0,20,0" transform="translate(401.392 2.047)" fill="#1477b1" fill-rule="evenodd"/><path d="M129.733,22a13.177,13.177,0,0,0,2.959-8.35,12.958,12.958,0,1,0-25.914,0A13.177,13.177,0,0,0,109.737,22a20.908,20.908,0,1,0,20,0" transform="translate(378.176 2.047)" fill="#a4ca90" fill-rule="evenodd"/><path d="M123.668,22a13.177,13.177,0,0,0,2.959-8.35,12.958,12.958,0,1,0-25.914,0A13.177,13.177,0,0,0,103.671,22a20.908,20.908,0,1,0,20,0" transform="translate(354.964 2.047)" fill="#60b393" fill-rule="evenodd"/><path d="M117.6,22a13.177,13.177,0,0,0,2.959-8.35,12.958,12.958,0,1,0-25.914,0A13.177,13.177,0,0,0,97.6,22a20.908,20.908,0,1,0,20,0" transform="translate(331.748 2.047)" fill="#ffd676" fill-rule="evenodd"/><path d="M111.533,22a13.177,13.177,0,0,0,2.959-8.35,12.958,12.958,0,1,0-25.914,0A13.177,13.177,0,0,0,91.537,22a20.908,20.908,0,1,0,20,0" transform="translate(308.532 2.047)" fill="#f99c4a" fill-rule="evenodd"/><path d="M105.463,22a13.177,13.177,0,0,0,2.959-8.35,12.958,12.958,0,1,0-25.914,0A13.177,13.177,0,0,0,85.466,22a20.908,20.908,0,1,0,20,0" transform="translate(285.32 2.047)" fill="#e85533" fill-rule="evenodd"/><path d="M99.4,22a13.177,13.177,0,0,0,2.959-8.35,12.958,12.958,0,1,0-25.914,0A13.177,13.177,0,0,0,79.4,22a20.908,20.908,0,1,0,20,0" transform="translate(262.105 2.047)" fill="#c8273d" fill-rule="evenodd"/></g></g></svg>