<svg xmlns="http://www.w3.org/2000/svg" xmlns:xlink="http://www.w3.org/1999/xlink" width="203.431" height="143.7" viewBox="0 0 203.431 143.7"><defs><clipPath id="a"><rect width="203.431" height="143.7" fill="none"/></clipPath></defs><g transform="translate(0 0)"><g transform="translate(0 0)" clip-path="url(#a)"><path d="M46.629,34.447a8.842,8.842,0,1,1-8.843-8.952,8.9,8.9,0,0,1,8.843,8.952" transform="translate(63.93 56.308)" fill="#ffd875" fill-rule="evenodd"/><path d="M55.648,30.769A8.842,8.842,0,1,1,46.8,21.817a8.9,8.9,0,0,1,8.843,8.952" transform="translate(83.849 48.185)" fill="#e5e284" fill-rule="evenodd"/><path d="M59.28,21.637a8.842,8.842,0,1,1-8.843-8.952,8.9,8.9,0,0,1,8.843,8.952" transform="translate(91.87 28.016)" fill="#a4ca90" fill-rule="evenodd"/><path d="M55.773,12.631A8.842,8.842,0,1,1,46.93,3.679a8.9,8.9,0,0,1,8.843,8.952" transform="translate(84.125 8.126)" fill="#60b393" fill-rule="evenodd"/><path d="M46.629,8.953a8.842,8.842,0,1,1-17.683,0,8.842,8.842,0,1,1,17.683,0" transform="translate(63.93 0.003)" fill="#1477b1" fill-rule="evenodd"/><path d="M37.208,12.758a8.8,8.8,0,0,1-8.641,8.952,8.8,8.8,0,0,1-8.641-8.952,8.8,8.8,0,0,1,8.641-8.952,8.8,8.8,0,0,1,8.641,8.952" transform="translate(44.01 8.406)" fill="#c8273d" fill-rule="evenodd"/><path d="M33.977,21.637a8.842,8.842,0,1,1-8.843-8.952,8.9,8.9,0,0,1,8.843,8.952" transform="translate(35.989 28.016)" fill="#e85533" fill-rule="evenodd"/><path d="M37.333,30.9a8.8,8.8,0,0,1-8.641,8.952,8.958,8.958,0,0,1,0-17.9A8.8,8.8,0,0,1,37.333,30.9" transform="translate(44.286 48.465)" fill="#f99d4b" fill-rule="evenodd"/><path d="M33.684,18.385a19.139,19.139,0,0,1,.395-3.86A17.89,17.89,0,0,0,22.432,31.409a17.436,17.436,0,0,0,34.229,5.137,18.168,18.168,0,0,1-4.489.561A18.608,18.608,0,0,1,33.684,18.385" transform="translate(49.543 32.08)" fill="#f99d4b" fill-rule="evenodd"/><path d="M44.151,28a18.441,18.441,0,0,1-16-9.353,17.682,17.682,0,1,0,31.572.725A18.417,18.417,0,0,1,44.151,28" transform="translate(57.564 41.186)" fill="#ffd875" fill-rule="evenodd"/><path d="M51.962,14.3a18.982,18.982,0,0,1,.562,4.591,18.455,18.455,0,0,1-21.879,18.4A17.455,17.455,0,0,0,64.581,31.3,17.678,17.678,0,0,0,51.962,14.3" transform="translate(67.68 31.576)" fill="#e5e284" fill-rule="evenodd"/><path d="M43.635,10.02a17.23,17.23,0,0,0-8.875,2.451,18.846,18.846,0,0,1,.988,31.049,17.222,17.222,0,0,0,7.887,1.906,17.7,17.7,0,0,0,0-35.407" transform="translate(76.77 22.13)" fill="#a4ca90" fill-rule="evenodd"/><path d="M64.754,23.666a17.461,17.461,0,0,0-34.37-4.591,18.379,18.379,0,0,1,4.229-.494A18.6,18.6,0,0,1,53.1,37.3a19.242,19.242,0,0,1-.263,3.151,17.692,17.692,0,0,0,11.92-16.784" transform="translate(67.106 13.166)" fill="#60b393" fill-rule="evenodd"/><path d="M43.873,21.94a18.4,18.4,0,0,1,15.35,8.288,17.8,17.8,0,0,0,1.932-8.086,17.483,17.483,0,1,0-34.964,0A17.819,17.819,0,0,0,28.3,30.58,18.416,18.416,0,0,1,43.873,21.94" transform="translate(57.843 9.806)" fill="#1477b1" fill-rule="evenodd"/><path d="M52.172,18.578a18.29,18.29,0,0,1,5.041.709,17.662,17.662,0,0,0-34.781,4.582,17.9,17.9,0,0,0,11.557,16.8,19.132,19.132,0,0,1-.3-3.372A18.606,18.606,0,0,1,52.172,18.578" transform="translate(49.543 13.168)" fill="#c8273d" fill-rule="evenodd"/><path d="M37.282,28.054a18.758,18.758,0,0,1,8.891-16,17.26,17.26,0,0,0-7.887-1.9,17.7,17.7,0,0,0,0,35.407,17.246,17.246,0,0,0,7.534-1.723,18.759,18.759,0,0,1-8.538-15.777" transform="translate(45.945 22.411)" fill="#e85533" fill-rule="evenodd"/><path d="M0,31.564H8.285V57.085l9.17-10.608H27.619l-10.662,12.1L27.9,73.327H17.455L8.4,59.735H8.285V73.327H0Z" transform="translate(0 69.712)" fill="#fff"/><path d="M17.857,36.212V49.524c0,2.708,0,6.9,4.309,6.9,3.478,0,4.97-2.153,4.97-6.629V36.212h8.288V63.058H27.469V59.413h-.112a8.726,8.726,0,0,1-7.9,4.309c-7.014,0-9.886-3.812-9.886-12.375V36.212Z" transform="translate(21.141 79.977)" fill="#fff"/><rect width="8.285" height="41.763" transform="translate(62.529 101.272)" fill="#fff"/><path d="M23.12,48.316V41.687h5.3V33.733h8.285v7.954H44v6.629H36.708v9.446c0,3.314,1.162,4.476,3.921,4.476A5.65,5.65,0,0,0,44,61.465v6.9a17.829,17.829,0,0,1-5.8.828c-6.462,0-9.777-3.093-9.777-7.9V48.316Z" transform="translate(51.062 74.502)" fill="#fff"/><path d="M39.221,36.212V49.524c0,2.708,0,6.9,4.309,6.9,3.478,0,4.97-2.153,4.97-6.629V36.212h8.288V63.058H48.833V59.413h-.112a8.726,8.726,0,0,1-7.9,4.309c-7.014,0-9.886-3.812-9.886-12.375V36.212Z" transform="translate(68.325 79.977)" fill="#fff"/><path d="M40.817,36.669H49.1v4.309h.112C50.982,37.718,53.3,36,57,36a10.656,10.656,0,0,1,2.7.279V43.85a12.767,12.767,0,0,0-3.533-.552c-5.913,0-7.075,3.148-7.075,8.673V63.515H40.817Z" transform="translate(90.148 79.52)" fill="#fff"/><path d="M56.455,46.6a5.082,5.082,0,1,1-5.082-5.082A5.035,5.035,0,0,1,56.455,46.6" transform="translate(102.235 91.69)" fill="#fff"/><path d="M69.1,46.446c0-3.039-2.541-4.806-5.3-4.806a8.852,8.852,0,0,0-6.738,3.205l-4.418-4.531C55.728,37.33,60.259,36,64.456,36c9.279,0,12.263,4.585,12.263,13.479V63.515H69.1V60.146h-.109c-1.826,2.872-5.195,4.033-8.509,4.033-4.97,0-9.555-2.875-9.555-8.288,0-9.392,11.6-9.446,18.173-9.446m-10.219,9.17c0,2.1,2.211,2.926,3.979,2.926,3.148,0,6.241-1.656,6.241-5.079V51.749H66.609c-2.483,0-7.733.385-7.733,3.866" transform="translate(112.465 79.52)" fill="#fff"/><path d="M70.017,36.886a4.8,4.8,0,1,1-4.8-4.806,4.809,4.809,0,0,1,4.8,4.806m-.661,35.3H61.071V45.338h8.285Z" transform="translate(133.414 70.852)" fill="#fff"/></g></g></svg>