<svg xmlns="http://www.w3.org/2000/svg" xmlns:xlink="http://www.w3.org/1999/xlink" width="64.014" height="63.976" viewBox="0 0 64.014 63.976"><defs><clipPath id="a"><rect width="64.014" height="63.976" fill="#abdda4"/></clipPath></defs><g clip-path="url(#a)"><path d="M.04,15.517c0-2.088-.011-4.176,0-6.265A5.077,5.077,0,0,1,5.152,4.125c1.573-.013,3.147-.017,4.72,0a1.027,1.027,0,0,0,1.077-.622A6,6,0,0,1,16.592,0a6,6,0,0,1,5.63,3.531.97.97,0,0,0,1,.6c1.6-.019,3.2-.017,4.806,0a5.075,5.075,0,0,1,5.08,5.069c.017,2.117.025,4.234-.007,6.35-.01.68.156.976.9.951,1.572-.052,3.146-.032,4.719-.008a1.029,1.029,0,0,0,1.064-.643,6.274,6.274,0,0,1,11.236-.013,1.031,1.031,0,0,0,1.056.657c1.6-.026,3.2-.021,4.805-.005a5.069,5.069,0,0,1,5.057,5.091q.024,6.307,0,12.615a5.009,5.009,0,0,1-5.083,5.044,5.1,5.1,0,0,0-3.254,1c-1.782,1.29-3.664,2.441-5.486,3.677-.559.379-.728.273-.717-.38.02-1.172-.021-2.346.014-3.518.019-.632-.267-.773-.829-.764-1.573.024-3.147.036-4.719,0-.62-.016-.843.26-.995.8a15.14,15.14,0,0,1-9.644,10.626A15.021,15.021,0,0,1,18.31,49.7c-.844-.457-1.356-.293-1.864.542-.234.384,0,.6.229.8.447.387.335.686-.04,1.059-2.821,2.8-5.6,5.642-8.448,8.42a4.778,4.778,0,1,1-6.748-6.767c2.781-2.841,5.617-5.628,8.422-8.446.328-.329.615-.511.994-.081.281.319.6.6.993.149.378-.432,1.055-.685.544-1.535a15.418,15.418,0,0,1,.325-16.06c.146-.235.485-.472.351-.733-.164-.32-.572-.141-.867-.143-2.345-.014-4.691,0-7.037-.012A5.075,5.075,0,0,1,.043,21.782c-.014-2.088,0-4.176,0-6.265m12.487,20.59c.243,7.476,5.757,13.245,13.3,13.266A13.027,13.027,0,0,0,39.111,36.149,13.028,13.028,0,0,0,25.825,22.842c-7.538.014-13.055,5.788-13.3,13.265M49.593,40.03a4.74,4.74,0,0,0,1.492-.85c1.726-1.126,3.3-2.386,5.653-2.193,1.853.152,3-1.31,3.018-3.241q.052-5.873,0-11.747a3.12,3.12,0,0,0-3.274-3.324c-1.371-.043-2.744,0-4.115-.018-.505-.008-.7.174-.736.69A5.437,5.437,0,0,1,50.5,22.263c-.848,1.146-.833,1.126.4,1.932a10.425,10.425,0,0,1,4.9,9.848c-.038.854-.248,1.123-1.118,1.114-4.144-.042-8.289,0-12.433-.033-.74-.005-.91.269-.913.952,0,.7.128,1.035.936,1.016,2.142-.051,4.287,0,6.43-.027.654-.008.948.188.9.878-.045.672-.01,1.349-.01,2.086M17.7,22.781H7.147c-.465,0-.891.045-.936-.659-.3-4.716,1.391-8.375,5.624-10.687.534-.292.579-.5.158-.93a5.413,5.413,0,0,1-1.617-3.417c-.049-.657-.313-.808-.908-.793-1.285.034-2.572-.01-3.857.017a3.158,3.158,0,0,0-3.378,3.4q-.042,5.786,0,11.573A3.166,3.166,0,0,0,5.666,24.71c3,.026,6,.007,9,.008a1.286,1.286,0,0,0,.885-.239c.638-.523,1.293-1.027,2.144-1.7m13.238-9.465h0c0-1.228.028-2.457-.007-3.685a3.1,3.1,0,0,0-3.114-3.3c-1.453-.078-2.913-.014-4.37-.027-.428,0-.607.171-.636.6A5.64,5.64,0,0,1,21.171,10.5c-.405.423-.406.636.143.933a10.047,10.047,0,0,1,5.608,8.539c.04.542.3.7.757.687.482-.013,1.108.447,1.355-.4a2.914,2.914,0,0,1,.754-1.517c1.234-.974,1.233-2.266,1.152-3.626-.036-.6-.006-1.2-.006-1.8M4.82,59.717a3.075,3.075,0,0,0,1.7-.774q3.465-3.449,6.925-6.9c.325-.323.371-.6.025-.943-.878-.861-1.745-1.733-2.609-2.607-.291-.294-.561-.353-.878-.035C7.6,50.846,5.191,53.209,2.85,55.639a2.222,2.222,0,0,0-.269,2.716A2.675,2.675,0,0,0,4.82,59.717M20.6,6.241a4.138,4.138,0,0,0-4-4.04,4.171,4.171,0,0,0-4.059,4.084,4.185,4.185,0,0,0,4.061,4,4.141,4.141,0,0,0,4-4.042M49.437,18.577a4.032,4.032,0,0,0-8.064,0,4.032,4.032,0,1,0,8.064,0m-13.065.087v0c-.685,0-1.371-.024-2.055,0a3.108,3.108,0,0,0-3.028,2.093c-.126.451-.064.758.418.955a14.962,14.962,0,0,1,5.512,3.824c.367.4.625.343.979-.009A8.721,8.721,0,0,1,40.7,23.763c.518-.238.53-.465.149-.873a5.751,5.751,0,0,1-1.669-3.663c-.026-.461-.27-.572-.67-.566-.714.011-1.428,0-2.141,0M10.94,20.6c.627,0,1.254-.01,1.881,0a.562.562,0,0,0,.664-.59q.245-3.152.507-6.3c.046-.566-.147-.737-.691-.474a8.059,8.059,0,0,0-4.81,6.775c-.052.484.139.6.566.593.627-.016,1.254,0,1.881-.006m11.248,0c.627,0,1.255-.018,1.881.006.486.018.645-.144.588-.652a8,8,0,0,0-4.626-6.626c-.812-.409-.914-.334-.851.61.118,1.761.23,3.525.418,5.279.151,1.413-.188,1.392,1.564,1.384.342,0,.684,0,1.026,0M50.978,32.955c.656,0,1.312-.013,1.967,0,.441.012.6-.135.552-.605a8.064,8.064,0,0,0-4.739-6.733c-.653-.324-.809-.088-.757.541.136,1.646.231,3.3.389,4.939.218,2.26-.072,1.8,1.989,1.855.2.005.4,0,.6,0m-8.189-6.093c.012-.258.02-.4.026-.543.036-.934-.08-1.012-.94-.6a8.119,8.119,0,0,0-2.385,1.786.681.681,0,0,0-.141.913,14.916,14.916,0,0,1,1.6,3.954.679.679,0,0,0,.795.582c.542-.011.558-.374.591-.758.153-1.818.31-3.636.455-5.339M16.55,12.679c-.479,2.456-.49,4.94-.744,7.4-.074.719.551.471.928.513.475.052.667-.16.625-.654-.128-1.505-.178-3.019-.356-4.518a8.386,8.386,0,0,0-.452-2.742m28.875,12.2a1.946,1.946,0,0,0-.163.376q-.321,3.576-.631,7.153c-.056.651.437.53.821.549.442.022.8-.021.744-.629-.135-1.562-.192-3.132-.372-4.688a10.664,10.664,0,0,0-.4-2.761M14.54,48.7c.28-.013.919-.692.89-.945s-1.142-1.31-1.333-1.223a1.32,1.32,0,0,0-.835.9c-.058.285.989,1.281,1.278,1.268" transform="translate(0 0)" fill="#abdda4"/><path d="M240.63,264.005c3.03,0,6.06,0,9.089,0a3.045,3.045,0,0,1,3.333,3.361q.008,5.96,0,11.919a3.071,3.071,0,0,1-3.331,3.376q-9.089.008-18.179,0a3.033,3.033,0,0,1-3.325-3.283q-.011-6.045,0-12.091a3.023,3.023,0,0,1,3.322-3.282c3.03-.007,6.06,0,9.089,0m.056,2.183c-2.917,0-5.834-.005-8.752,0-1.124,0-1.529.386-1.532,1.473q-.014,5.663,0,11.326c0,1.1.4,1.488,1.515,1.489q8.709.009,17.418,0c1.151,0,1.531-.391,1.533-1.559q.01-5.577,0-11.154c0-1.206-.378-1.574-1.6-1.576q-4.29-.009-8.58,0" transform="translate(-189.043 -218.691)" fill="#abdda4"/><path d="M95.6,166.793a11.389,11.389,0,1,1,11.414-11.322A11.266,11.266,0,0,1,95.6,166.793m9.225-11.4a9.186,9.186,0,0,0-18.372-.027,9.012,9.012,0,0,0,9.159,9.183c5.235.012,8.978-3.909,9.214-9.156" transform="translate(-69.776 -119.296)" fill="#abdda4"/><path d="M325.124,122.02c-.975.239-1.012-.344-1.057-1.106-.055-.94.375-1.04,1.161-1.074.939-.042,1.049.377,1.072,1.164.027.913-.331,1.19-1.176,1.017" transform="translate(-268.441 -99.268)" fill="#abdda4"/><path d="M326.243,145c.216.925-.266,1.068-1.08,1.092-.9.026-1.088-.3-1.1-1.137-.016-.894.305-1.1,1.139-1.1.87,0,1.235.264,1.044,1.145" transform="translate(-268.439 -119.165)" fill="#abdda4"/><path d="M26.241,49.019c.229.952-.308,1.037-1.094,1.073-.92.042-1.061-.344-1.087-1.15-.03-.919.344-1.07,1.153-1.085.893-.016,1.211.3,1.029,1.162" transform="translate(-19.929 -39.643)" fill="#abdda4"/><path d="M25.142,74.015c-1.064.257-1.009-.407-1.066-1.126-.078-.977.441-1,1.185-1.043.977-.061,1.012.442,1.039,1.19.033.926-.362,1.179-1.158.978" transform="translate(-19.937 -59.511)" fill="#abdda4"/><path d="M260.387,298.406c-2.43,0-4.861-.019-7.29.012-.7.009-.954-.206-.946-.925.031-2.887.039-5.776,0-8.663-.013-.894.5-.852,1.1-.85s1.129-.06,1.109.842c-.047,2.143.014,4.289-.029,6.432-.015.742.2,1,.964.992.713-.011,1.045-.157,1-.953a1.217,1.217,0,0,1,1.891-1.068c.433.227.292.666.26,1-.078.8.236,1.041,1.022,1.021.688-.018.994-.19.942-.924s.037-1.49-.024-2.228c-.068-.821.286-1.032,1.042-1,1.145.044,1.148.007,1.152,1.135,0,.744.04,1.489-.009,2.229-.053.8.438.768.988.776.573.008,1-.016.972-.8-.047-1.514.027-3.032-.027-4.545-.032-.895.5-.854,1.1-.851s1.141-.063,1.109.841c-.053,1.485.013,2.974-.025,4.459-.017.664.183.917.876.9,1.1-.031,1.568.763,1.159,1.834-.172.451-.561.326-.876.327-2.487.012-4.975.007-7.462.007" transform="translate(-208.87 -238.552)" fill="#abdda4"/></g></svg>