<?xml version="1.0" encoding="utf-8"?>
<!-- Generator: Adobe Illustrator 27.0.0, SVG Export Plug-In . SVG Version: 6.00 Build 0)  -->
<svg version="1.1" id="Capa_1" xmlns="http://www.w3.org/2000/svg" xmlns:xlink="http://www.w3.org/1999/xlink" x="0px" y="0px"
	 viewBox="0 0 1734.58 1023.44" style="enable-background:new 0 0 1734.58 1023.44;" xml:space="preserve">
<style type="text/css">
	.st0{fill:#010202;stroke:#ED6E45;stroke-width:5;stroke-miterlimit:10;}
	.st1{fill:#010202;stroke:#F8AE60;stroke-width:5;stroke-miterlimit:10;}
	.st2{fill:#010202;stroke:#6ABFA4;stroke-width:5;stroke-miterlimit:10;}
	.st3{fill:#010202;stroke:#3388BE;stroke-width:5;stroke-miterlimit:10;}
	.st4{fill:#010202;stroke:#D53D4F;stroke-width:5;stroke-miterlimit:10;}
	.st5{fill:#ED6E45;}
	.st6{font-family:'Avenir-Black';}
	.st7{font-size:38px;}
	.st8{fill:#F8AE60;}
	.st9{fill:#6ABFA4;}
	.st10{fill:#3388BE;}
	.st11{fill:#D53D4F;}
	.st12{fill:none;}
	.st13{fill:#FFFFFF;}
	.st14{font-family:'RobotoMono-Light';}
	.st15{font-size:24px;}
	.st16{fill:none;stroke:#FFFFFF;stroke-miterlimit:10;}
</style>
<g>
	<circle class="st0" cx="219.01" cy="509.84" r="216.51"/>
	<circle class="st1" cx="543.15" cy="509.84" r="216.51"/>
	<circle class="st2" cx="867.29" cy="509.84" r="216.51"/>
	<circle class="st3" cx="1191.43" cy="509.84" r="216.51"/>
	<circle class="st4" cx="1515.57" cy="509.84" r="216.51"/>
	<text transform="matrix(1 0 0 1 62.1379 471.1392)"><tspan x="0" y="0" class="st5 st6 st7">HUMAN</tspan><tspan x="0" y="45.6" class="st5 st6 st7">RAW </tspan><tspan x="0" y="91.2" class="st5 st6 st7">DATA</tspan></text>
	<text transform="matrix(1 0 0 1 386.2782 471.1392)"><tspan x="0" y="0" class="st8 st6 st7">HUMAN</tspan><tspan x="0" y="45.6" class="st8 st6 st7">PATTERNS</tspan><tspan x="0" y="91.2" class="st8 st6 st7">BASE</tspan></text>
	<text transform="matrix(1 0 0 1 710.4185 448.3389)"><tspan x="0" y="0" class="st9 st6 st7">NATURAL</tspan><tspan x="0" y="45.6" class="st9 st6 st7">LANGUAGE</tspan><tspan x="0" y="91.2" class="st9 st6 st7">PROCESSING</tspan><tspan x="0" y="136.8" class="st9 st6 st7">(NPL)</tspan></text>
	<text transform="matrix(1 0 0 1 1044.5587 448.3389)"><tspan x="0" y="0" class="st10 st6 st7">KULTUR</tspan><tspan x="0" y="45.6" class="st10 st6 st7">PATTERNS</tspan><tspan x="0" y="91.2" class="st10 st6 st7">PLATFORM</tspan><tspan x="0" y="136.8" class="st10 st6 st7">(KPP)</tspan></text>
	<text transform="matrix(1 0 0 1 1368.6991 471.1387)"><tspan x="0" y="0" class="st11 st6 st7">ACCIONABLE</tspan><tspan x="0" y="45.6" class="st11 st6 st7">CONSUMER</tspan><tspan x="0" y="91.2" class="st11 st6 st7">INSIGHTS </tspan></text>
	<rect x="373.16" y="902.92" class="st12" width="324.77" height="120.51"/>
	<text transform="matrix(1 0 0 1 413.1196 920.9247)"><tspan x="0" y="0" class="st13 st14 st15">Estructuración de </tspan><tspan x="-14.4" y="28.8" class="st13 st14 st15">textos, imágenes en </tspan><tspan x="7.2" y="57.6" class="st13 st14 st15">bases de estudio </tspan><tspan x="21.6" y="86.4" class="st13 st14 st15">longitudinales</tspan></text>
	<line class="st16" x1="535.54" y1="751.1" x2="535.54" y2="875.69"/>
	<rect x="1004.62" y="902.92" class="st12" width="373.47" height="120.51"/>
	<text transform="matrix(1 0 0 1 1011.323 920.9247)"><tspan x="0" y="0" class="st13 st14 st15">Plataforma de consulta de </tspan><tspan x="7.2" y="28.8" class="st13 st14 st15">información, comparación </tspan><tspan x="72.01" y="57.6" class="st13 st14 st15">y visualización</tspan></text>
	<line class="st16" x1="1191.35" y1="751.1" x2="1191.35" y2="875.69"/>
	<rect x="30.54" y="2.53" class="st12" width="376.93" height="82.1"/>
	<text transform="matrix(1 0 0 1 31.7798 20.5311)"><tspan x="0" y="0" class="st13 st14 st15">Recolección de información </tspan><tspan x="36.01" y="28.8" class="st13 st14 st15">textual, fotográfica, </tspan><tspan x="100.82" y="57.6" class="st13 st14 st15">estructurada</tspan></text>
	<line class="st16" x1="219.01" y1="113.82" x2="219.01" y2="238.42"/>
	<rect x="684.58" y="2.53" class="st12" width="365.41" height="82.1"/>
	<text transform="matrix(1 0 0 1 701.6639 20.5311)"><tspan x="0" y="0" class="st13 st14 st15">Procesamiento de textos </tspan><tspan x="-7.2" y="28.8" class="st13 st14 st15">bajo nuestra metodología </tspan><tspan x="-14.4" y="57.6" class="st13 st14 st15">patentada de Human Kultur</tspan></text>
	<line class="st16" x1="867.29" y1="113.82" x2="867.29" y2="238.42"/>
	<rect x="1305.31" y="2.54" class="st12" width="420.52" height="82.1"/>
	<text transform="matrix(1 0 0 1 1328.3409 20.5389)"><tspan x="0" y="0" class="st13 st14 st15">Llevamos al corazón de las </tspan><tspan x="-14.4" y="28.8" class="st13 st14 st15">estrategias el entendimiento </tspan><tspan x="86.41" y="57.6" class="st13 st14 st15">del consumidor</tspan></text>
	<line class="st16" x1="1515.57" y1="113.82" x2="1515.57" y2="238.42"/>
</g>
</svg>
