<svg xmlns="http://www.w3.org/2000/svg" width="615.164" height="503.097" viewBox="0 0 615.164 503.097">
  <g id="Grupo_114" data-name="Grupo 114" transform="translate(-822.272 -480.829)">
    <path id="Trazado_87" data-name="Trazado 87" d="M268.583,186.578A114.519,114.519,0,0,0,294.3,114.01C294.3,51.049,243.877,0,181.67,0,119.506,0,69.086,51.049,69.086,114.01A114.519,114.519,0,0,0,94.8,186.578,184.235,184.235,0,0,0,0,348.2C0,449.792,81.334,532.175,181.67,532.175c100.378,0,181.712-82.383,181.712-183.977a184.319,184.319,0,0,0-94.8-161.62" transform="translate(928.514 983.926) rotate(-107)" fill="#d53e4f" fill-rule="evenodd"/>
    <path id="Uni贸n_1" data-name="Uni贸n 1" d="M17.574,17.574h0v0h0v0Z" transform="translate(941.519 723.558) rotate(30)" fill="none" stroke="#000" stroke-linecap="round" stroke-linejoin="round" stroke-width="9"/>
    <path id="Uni贸n_2" data-name="Uni贸n 2" d="M17.574,17.574h0v0h0v0Z" transform="translate(965.525 798.819) rotate(30)" fill="none" stroke="#000" stroke-linecap="round" stroke-linejoin="round" stroke-width="9"/>
  </g>
</svg>
