<svg xmlns="http://www.w3.org/2000/svg" xmlns:xlink="http://www.w3.org/1999/xlink" width="60.999" height="75.54" viewBox="0 0 60.999 75.54"><defs><clipPath id="a"><rect width="60.999" height="75.54" fill="#d53e4f"/></clipPath></defs><g clip-path="url(#a)"><path d="M26.947,41.548c0,1.249.006,2.5,0,3.748-.008,1.95.142,1.765-1.721,1.774a4.11,4.11,0,0,0-1.493.214,2.24,2.24,0,0,0-.016,4.291,5.01,5.01,0,0,0,2.2.2c.812-.048,1.065.286,1.041,1.064-.043,1.383.012,2.769-.02,4.153-.015.661.239.906.892.883.978-.034,1.959-.025,2.937,0,.549.013.826-.122.945-.749a4.961,4.961,0,0,1,9.774-.021c.116.608.36.777.927.771,1.756-.021,3.513.032,5.267-.022.875-.027,1.157.248,1.171,1.146.134,8.087-3.19,14.482-9.415,19.488-1.158.931-2.312,1.867-3.442,2.831-.923.788-.757,3.212.238,3.9a3.694,3.694,0,0,1-.006,6.222,1.5,1.5,0,0,0-.786,1.564A3.417,3.417,0,0,1,33.669,96.4a1.729,1.729,0,0,0-.831,1.186,8.626,8.626,0,0,1-16.792-.022,1.742,1.742,0,0,0-.845-1.177,3.411,3.411,0,0,1-1.755-3.4,1.5,1.5,0,0,0-.809-1.552,3.7,3.7,0,0,1-.05-6.168,2.927,2.927,0,0,0,.212-4.027c-1.826-1.552-3.765-2.985-5.485-4.645a23.618,23.618,0,0,1,9.631-39.727,30.023,30.023,0,0,1,9.233-.882c.659.009.776.361.772.906-.012,1.553,0,3.107,0,4.66M7.615,60.444v0c-1.215,0-2.43,0-3.646,0-1.175,0-1.263.089-1.141,1.292a20.939,20.939,0,0,0,3.555,9.681,26.8,26.8,0,0,0,6.9,6.634c2,1.441,3.258,3.01,2.735,5.59-.15.742.227,1,.975.988,2.126-.037,4.253-.047,6.379,0,.84.02,1.026-.315,1.016-1.075q-.052-3.746,0-7.493c.009-.7-.185-.982-.923-1.11a4.834,4.834,0,0,1-3.928-4.1,5.1,5.1,0,0,1,2.954-5.373c.613-.28,1.577.055,1.824-.762a7.765,7.765,0,0,0,.06-2.114c0-.371-.031-.746.006-1.113.081-.779-.2-1.092-1.022-1.062-1.517.056-3.037.016-4.556.015-1.713,0-1.714,0-1.722-1.672a4.275,4.275,0,0,0-.165-1.4,2.439,2.439,0,0,0-2.237-1.75,2.442,2.442,0,0,0-2.148,1.733,6.216,6.216,0,0,0-.161,2.208c.008.658-.261.9-.9.885-1.282-.027-2.565-.008-3.848-.008M26.946,78.57h0c0,1.722.019,3.445-.01,5.167-.011.653.223.907.884.892,1.384-.032,2.77-.039,4.153,0,.732.022.947-.289.914-.966-.038-.775.029-1.555-.019-2.329a1.788,1.788,0,0,1,.789-1.63c1.947-1.564,3.923-3.1,5.766-4.786a20.393,20.393,0,0,0,6.654-13.272c.1-.945-.2-1.258-1.157-1.219-1.652.066-3.309-.007-4.963.028-.734.016-1.041-.234-1.01-.99a5.741,5.741,0,0,0-.186-2.205,2.251,2.251,0,0,0-4.328.02,4.2,4.2,0,0,0-.18,1.9c.086.951-.23,1.33-1.235,1.284-1.618-.074-3.244.039-4.861-.041-1.013-.049-1.269.33-1.231,1.278.067,1.652-.019,3.31.033,4.963.026.855-.3,1.159-1.121,1.083a6.911,6.911,0,0,0-1.316.014,2.337,2.337,0,1,0-.031,4.672,8.976,8.976,0,0,0,1.518.02c.7-.045.955.253.943.948-.031,1.722-.01,3.444-.01,5.167m-20.7-20.7c.777,0,1.557-.048,2.328.013.816.065,1.162-.172,1.317-1.05a4.762,4.762,0,0,1,4.4-3.82c2.473-.109,4.657,1.2,5.106,3.406.276,1.355.88,1.627,2.032,1.454a3.366,3.366,0,0,1,.4,0c2.992-.082,2.468.6,2.538-2.669.013-.607-.244-.779-.814-.886a4.967,4.967,0,0,1,0-9.766c.573-.108.824-.287.811-.89-.03-1.417-.033-2.836,0-4.254.016-.688-.282-.871-.917-.841A21.112,21.112,0,0,0,7.013,46.829,20.568,20.568,0,0,0,2.851,56.913c-.095.705.132,1,.864.966.842-.04,1.688-.009,2.532-.009M24.442,87.2q-4.4,0-8.808,0c-1.268,0-1.955.381-2,1.093-.044.751.687,1.191,2,1.191q8.808,0,17.616,0a4.918,4.918,0,0,0,.908-.04,1.149,1.149,0,0,0,1.069-1.053c.028-.669-.457-1.023-1.072-1.149a4.552,4.552,0,0,0-.907-.04q-4.4,0-8.808,0m0,9.728c-1.62,0-3.24.022-4.86-.011-.68-.014-.922.134-.677.861a6.2,6.2,0,0,0,5.487,3.848,6.189,6.189,0,0,0,5.588-3.848c.244-.726,0-.875-.678-.861-1.619.033-3.24.011-4.859.011m.016-4.864v.005c-2.328,0-4.656-.012-6.984.007-.754.006-1.394.35-1.377,1.164.016.748.63,1.055,1.345,1.1.1.007.2.006.3.006q6.68,0,13.36,0a2.712,2.712,0,0,0,.7-.055,1.138,1.138,0,0,0,.99-1.119,1.122,1.122,0,0,0-.959-1.041,3.725,3.725,0,0,0-.9-.065q-3.238-.007-6.477,0" transform="translate(0 -28.68)" fill="#d53e4f"/><path d="M185.59,11c0,2.4.01,4.793,0,7.19a3.61,3.61,0,0,1-3.872,3.844c-1.688.009-3.376-.021-5.063.01-.7.013-.985-.255-.939-.95a9.469,9.469,0,0,0-.013-1.417,2.348,2.348,0,1,0-4.687.04A11.126,11.126,0,0,0,171,21.139c.035.638-.214.912-.876.907-2.7-.02-5.4-.025-8.1,0-.738.007-.917-.33-.905-.986.026-1.383-.01-2.768.014-4.151.01-.589-.122-.883-.8-1.007a4.793,4.793,0,0,1-4.072-4.914,4.8,4.8,0,0,1,4.039-4.842c.644-.118.866-.356.83-.977a15.835,15.835,0,0,1,.006-1.822A3.447,3.447,0,0,1,164.478.033q8.86-.064,17.72,0a3.455,3.455,0,0,1,3.385,3.583c.027,2.464.006,4.928.007,7.392M173.43,2.587c-2.665,0-5.331-.01-8,0-1.241.006-1.706.48-1.725,1.718-.016,1.012,0,2.024-.005,3.037-.005,1.312-.007,1.312-1.365,1.32-.337,0-.677-.015-1.011.016a2.5,2.5,0,0,0-2.443,2.379,2.5,2.5,0,0,0,2.416,2.3,10.47,10.47,0,0,0,1.517.018c.651-.034.9.242.892.891-.024,1.45.011,2.9-.011,4.352-.009.6.2.866.823.845.876-.029,1.757-.045,2.631.006.82.048,1.236-.119,1.4-1.08a4.741,4.741,0,0,1,4.217-3.782,5.064,5.064,0,0,1,5.27,3.114c.228.566-.078,1.437.659,1.673a6.763,6.763,0,0,0,1.91.063c.2,0,.405,0,.607,0,1.319-.023,1.793-.463,1.8-1.752q.016-6.68,0-13.361c0-1.294-.475-1.754-1.785-1.76-2.6-.011-5.2,0-7.794,0" transform="translate(-124.598 0)" fill="#d53e4f"/></g></svg>