<svg xmlns="http://www.w3.org/2000/svg" xmlns:xlink="http://www.w3.org/1999/xlink" width="60.5" height="60.554" viewBox="0 0 60.5 60.554"><defs><clipPath id="a"><rect width="60.5" height="60.554" fill="#abdda4"/></clipPath></defs><g clip-path="url(#a)"><path d="M41.933,14.632a9.019,9.019,0,0,1,.835-12.311,8.872,8.872,0,0,1,11.737-.2,9.071,9.071,0,0,1,1.061,12.547c.42,0,.757,0,1.094,0a3.823,3.823,0,0,1,3.829,3.81q.021,14.727,0,29.455a3.813,3.813,0,0,1-3.948,3.853q-9.453.014-18.906,0c-1.016,0-1.019,0-.713.955.24.746.5,1.488.73,2.236a.746.746,0,0,0,.833.594c.783-.025,1.569-.007,2.353,0,.763,0,1.121.4,1.156,1.155.082,1.763.092,1.763,1.834,1.763q3.651,0,7.3,0a3.98,3.98,0,0,1,.728.03.936.936,0,0,1,.829,1.032.917.917,0,0,1-.81.965,5.056,5.056,0,0,1-.89.036H9.526c-1.281,0-1.743-.287-1.722-1.064.021-.743.455-1,1.7-1,2.678,0,5.356-.022,8.033.014.725.01,1.08-.172.969-.947a4.308,4.308,0,0,1,0-.729c.027-.937.334-1.24,1.294-1.256.676-.012,1.355-.042,2.028.008a.928.928,0,0,0,1.091-.81c.209-.755.457-1.5.736-2.233.216-.566.1-.773-.53-.757-1.3.033-2.6.01-3.895.01q-7.546,0-15.093,0A3.862,3.862,0,0,1,0,47.626q0-14.4,0-28.806a3.862,3.862,0,0,1,4.14-4.155c1.893,0,3.787-.032,5.68.014.735.018.921-.244.906-.938-.041-1.838-.02-3.678-.011-5.517.005-1.044.309-1.34,1.364-1.348,1.109-.009,2.218-.012,3.327,0,.939.012,1.256.331,1.262,1.285.012,1.866-.005,3.733.014,5.6,0,.33-.2.859.407.874s.432-.517.433-.849c.012-4.057.006-8.114.009-12.171,0-1.313.246-1.555,1.563-1.559,1,0,2-.006,3,0,1.1.009,1.39.3,1.391,1.4q.008,5.923,0,11.847c0,.216-.005.433,0,.649.01.318-.057.7.448.689.448-.011.4-.357.405-.65.006-.189,0-.379,0-.568q0-4.017,0-8.033c0-1.16.28-1.436,1.434-1.442,1.082-.006,2.164-.011,3.246,0,.945.012,1.269.328,1.273,1.274.011,2.84.025,5.68-.009,8.52-.008.7.191.937.914.93,3.354-.034,6.708-.015,10.062-.016.185,0,.369-.017.665-.031M30.161,43.881h27.1c1.172,0,1.173,0,1.173-1.209q0-9.574,0-19.148c0-1.515.015-3.029-.008-4.543-.014-.923-.295-1.815-1.275-2.04a8.341,8.341,0,0,0-4.782.069,9.555,9.555,0,0,1-6.656.2A4.791,4.791,0,0,0,44.1,16.72q-6.49.026-12.981,0c-.574,0-.828.144-.819.772.03,2.055.008,4.111.015,6.166,0,.3-.1.717.406.725.567.009.439-.446.441-.769.012-1.6,0-3.191.011-4.787.009-.9.332-1.221,1.228-1.234,1.136-.017,2.272-.013,3.408,0,1,.01,1.309.315,1.314,1.316q.016,3.083,0,6.166c0,1.1-.3,1.391-1.4,1.394-2.218.007-4.435,0-6.653,0q-11.846,0-23.691,0c-1.207,0-1.477-.272-1.479-1.479,0-2.055-.01-4.111,0-6.166.006-.9.334-1.216,1.233-1.229,1.136-.016,2.272-.013,3.408,0,.995.01,1.3.318,1.309,1.321.011,1.541-.006,3.083.011,4.624,0,.334-.182.855.442.843.558-.011.4-.489.4-.8.013-2-.02-4,.021-6,.014-.708-.267-.864-.907-.852-1.7.033-3.407.009-5.111.012-1.927,0-2.643.717-2.644,2.644q0,11.724,0,23.448c0,1.057,0,1.059,1.079,1.059H30.161m.181,2.064H3.251c-.243,0-.487,0-.73.008a.428.428,0,0,0-.447.374,2.5,2.5,0,0,0,2.613,3.4q25.55,0,51.1,0c1.927,0,2.643-.72,2.647-2.641,0-1.136,0-1.137-1.163-1.137H30.342M21.426,13.32v-.568q0-4.909-.005-9.818c0-.3.112-.663-.345-.8-1-.3-1.48.034-1.48,1.048q0,7.871,0,15.741c0,1.569,0,3.138,0,4.706,0,.257-.078.552.231.721a1.036,1.036,0,0,0,1.594-.889q0-5.071,0-10.142M47.72,5.8c0-1.2-.025-2.013.009-2.823.024-.581-.188-.691-.722-.554a6.711,6.711,0,0,0-4.048,9.858c.214.377.436.427.751.1a21.236,21.236,0,0,1,1.9-1.88c1.662-1.322,2.674-2.871,2.11-4.7m4.549,4.112c-.784,0-1.568.016-2.351-.006a1.364,1.364,0,0,0-1.086.426c-1.156,1.174-2.316,2.346-3.5,3.494-.416.4-.363.649.131.9a6.815,6.815,0,0,0,4.46.748A6.687,6.687,0,0,0,55.22,10.59c.1-.495.024-.7-.52-.685-.81.028-1.621.007-2.432.007M30.208,55.566c1.569,0,3.137-.009,4.706.006.477,0,.645-.128.47-.617-.3-.84-.575-1.689-.839-2.541a.8.8,0,0,0-.889-.633q-3.408.029-6.815,0a.8.8,0,0,0-.889.633c-.256.826-.514,1.653-.816,2.463-.211.567-.028.708.528.7,1.514-.024,3.029-.008,4.543-.009M28.243,15.209c0-2.759-.02-5.517.014-8.276.009-.7-.183-.951-.911-.939-.675.011-.954.151-.95.9q.043,8.316,0,16.633c0,.752.28.887.952.9.731.013.917-.244.909-.941-.034-2.758-.014-5.517-.014-8.276m-15.465,1.38c0,2.326.024,4.652-.015,6.977-.012.712.273.87.909.851.579-.016.957-.034.952-.81q-.049-6.936,0-13.873c.006-.774-.37-.8-.951-.811-.635-.017-.923.137-.91.85.039,2.271.015,4.543.015,6.815m39.86-8.743c.7,0,1.405-.009,2.108,0,.409.007.576-.095.5-.567a6.675,6.675,0,0,0-4.9-4.894c-.38-.059-.566,0-.564.417q.011,2.23,0,4.459c0,.411.173.589.583.583.757-.011,1.514,0,2.27,0M30.267,57.632H21.354c-.411,0-.912-.045-.734.605.1.373.5.246.778.246q8.833.009,17.666,0c.334,0,.864.178.838-.443-.025-.606-.553-.4-.882-.4-2.917-.016-5.834-.009-8.752-.009M7.789,22.1c0-.622-.011-1.244,0-1.865.015-.707-.5-.579-.908-.574s-.927-.156-.923.558c.007,1.216,0,2.433,0,3.649a.46.46,0,0,0,.375.531c1.051.264,1.45-.025,1.451-1.082q0-.608,0-1.216m25.441-.106c0,.595.023,1.19-.006,1.783-.033.678.415.651.862.627.423-.023.983.175.975-.594-.013-1.189,0-2.378,0-3.567,0-.216,0-.427-.251-.547a1.027,1.027,0,0,0-1.576.92c0,.46,0,.919,0,1.378m-15.7-1.425q0-1.617,0-3.234c0-.277,0-.564-.387-.586-.429-.025-.467.266-.467.588q0,3.234,0,6.469c0,.277,0,.564.387.586.429.025.467-.266.467-.588q0-1.617,0-3.234m5.963,0q0,1.617,0,3.234c0,.277,0,.564.386.586.428.025.468-.265.467-.587q0-3.234,0-6.469c0-.277,0-.564-.386-.586-.428-.025-.468.265-.468.587q0,1.617,0,3.234" transform="translate(0 0)" fill="#abdda4"/><path d="M24.014,181.182a2.865,2.865,0,0,1,2.165-2.875,2.9,2.9,0,0,1,3.444,1.467,2.119,2.119,0,0,0,1.228,1.066c2.829,1.151,5.646,2.333,8.458,3.523a.711.711,0,0,0,.969-.217,2.948,2.948,0,0,1,4.271-.322.769.769,0,0,0,1.167.013q4.427-3.359,8.888-6.672a2.283,2.283,0,0,0,.77-1.005A2.777,2.777,0,0,1,58,174.335a2.805,2.805,0,0,1,2.878,1.7,2.205,2.205,0,0,0,.958,1.036q4.347,2.527,8.674,5.089a.74.74,0,0,0,1.1-.153,3,3,0,1,1,2.655,5.08,2.954,2.954,0,0,1-3.271-1.7,2.04,2.04,0,0,0-.9-.981q-4.346-2.529-8.672-5.092a.8.8,0,0,0-1.172.143,2.9,2.9,0,0,1-4.045.127c-.5-.424-.783-.336-1.234.006q-4.4,3.333-8.824,6.623a2.238,2.238,0,0,0-.789.993,2.765,2.765,0,0,1-2.613,1.851,2.851,2.851,0,0,1-2.9-1.676,1.43,1.43,0,0,0-.757-.783c-2.875-1.182-5.748-2.367-8.609-3.583a.929.929,0,0,0-1.3.263,3.033,3.033,0,0,1-3.361.723,2.9,2.9,0,0,1-1.805-2.815m35.014-3.865a.9.9,0,0,0-.837-.854.822.822,0,0,0-.885.853.813.813,0,0,0,.813.845c.524.021.807-.348.909-.844M27.869,181.2a.919.919,0,0,0-.834-.837.851.851,0,0,0-.09,1.7c.525.03.809-.343.925-.863m46.74,2.96a.9.9,0,0,0-.806-.875.821.821,0,0,0-.915.82.811.811,0,0,0,.782.872c.53.047.813-.325.939-.818m-31.162,1.924c-.1-.495-.378-.867-.9-.853a.85.85,0,0,0,.053,1.7c.478-.008.75-.363.847-.845" transform="translate(-20.116 -146.035)" fill="#abdda4"/><path d="M255.565,116.408c-1.189,0-2.378.019-3.567-.008a1.525,1.525,0,0,0-1.219.5c-.863.894-1.75,1.765-2.631,2.642a3.925,3.925,0,0,1-.6.538,1.029,1.029,0,0,1-1.406-.093.969.969,0,0,1-.044-1.4c1.3-1.367,2.657-2.689,4.007-4.012a1.245,1.245,0,0,1,.923-.23c2.756,0,5.512,0,8.269,0,.847,0,1.266.361,1.266,1.027s-.419,1.021-1.265,1.029c-1.243.012-2.486,0-3.729,0" transform="translate(-205.917 -95.784)" fill="#abdda4"/><path d="M30.458,168.34c1.7,0,3.406-.008,5.11,0,.848.005,1.267.361,1.267,1.027s-.419,1.027-1.266,1.029q-5.11.012-10.22,0c-.849,0-1.266-.36-1.266-1.027s.417-1.023,1.265-1.028c1.7-.011,3.406,0,5.11,0" transform="translate(-20.174 -141.014)" fill="#abdda4"/><path d="M238.511,254.39c-1.081,0-2.163.013-3.243,0-.782-.012-1.185-.38-1.185-1.025s.4-1.021,1.184-1.026q3.243-.02,6.487,0c.784.005,1.185.379,1.185,1.024s-.4,1.014-1.184,1.027c-1.081.017-2.162,0-3.243,0" transform="translate(-196.088 -211.369)" fill="#abdda4"/><path d="M260.621,236.376c-.486,0-.973.015-1.459,0a.95.95,0,0,1-1.041-1,.928.928,0,0,1,.989-1.042q1.5-.043,3,0a.915.915,0,0,1,.961.987.942.942,0,0,1-.99,1.045c-.484.029-.972.006-1.458.007" transform="translate(-216.225 -196.282)" fill="#abdda4"/><path d="M109.6,170.4a4.45,4.45,0,0,1-.726-.05.934.934,0,0,1-.779-1.14c.115-.813.728-.9,1.4-.888.688.007,1.421-.053,1.582.861a.933.933,0,0,1-.749,1.161,4,4,0,0,1-.725.056" transform="translate(-90.542 -141.003)" fill="#abdda4"/><path d="M28.044,290.4c-.892,0-1.784.009-2.676,0-.861-.011-1.274-.344-1.287-1.007s.406-1.043,1.243-1.049c1.811-.012,3.622,0,5.432,0,.688,0,1.166.256,1.2,1.009.032.669-.4,1.037-1.239,1.05-.892.013-1.784,0-2.676,0" transform="translate(-20.172 -241.54)" fill="#abdda4"/><path d="M79.508,290.429a3.879,3.879,0,0,1-.86-.129.923.923,0,0,1-.578-1.189c.23-.895.982-.761,1.652-.776.616-.014,1.158.109,1.3.81a.929.929,0,0,1-.621,1.168,4.391,4.391,0,0,1-.9.117" transform="translate(-65.362 -241.532)" fill="#abdda4"/></g></svg>