<svg xmlns="http://www.w3.org/2000/svg" xmlns:xlink="http://www.w3.org/1999/xlink" width="49.958" height="49.958" viewBox="0 0 49.958 49.958"><defs><clipPath id="a"><rect width="49.958" height="49.958" fill="#d53e4f"/></clipPath></defs><g clip-path="url(#a)"><path d="M24.989,49.956q-9.382,0-18.764,0A5.98,5.98,0,0,1,0,43.754Q0,22.616,0,1.478C0,.213.208,0,1.452,0Q19.846,0,38.239,0C39.445,0,39.7.261,39.7,1.5q0,8.937,0,17.874c0,1.161,0,1.162,1.2,1.162,2.522,0,5.043,0,7.565,0,1.233,0,1.493.263,1.493,1.468q0,10.9,0,21.805a5.974,5.974,0,0,1-6.127,6.146q-9.419.011-18.839,0M39.134,48.07l.161-.143C37.519,46.03,37.7,43.7,37.7,41.4q.01-19.279.018-38.558c0-.735-.183-.972-.95-.971q-16.98.036-33.961,0c-.775,0-.942.245-.939.974.025,6.995.015,13.99.015,20.984q0,9.788.006,19.576A4.3,4.3,0,0,0,4.088,47.5a5.39,5.39,0,0,0,2.651.577q15.831-.006,31.662,0h.733M39.7,33.627h0c0,3.409-.015,6.819.006,10.228a4.012,4.012,0,0,0,2.9,3.94c2.989.812,5.433-1.117,5.446-4.377.027-6.72,0-13.44.02-20.16,0-.6-.211-.76-.778-.754-2.248.024-4.5.036-6.744-.006-.707-.013-.874.24-.869.9.027,3.409.012,6.819.012,10.228" transform="translate(0 0)" fill="#d53e4f"/><path d="M59.007,57.561q-5.637,0-11.274,0c-1.421,0-1.693-.277-1.693-1.69q0-5.155,0-10.309c0-1.27.263-1.54,1.5-1.54q11.5,0,22.992,0c1.23,0,1.532.3,1.533,1.535q.006,5.192,0,10.384c0,1.285-.325,1.615-1.64,1.618-3.807.009-7.615,0-11.422,0M59.146,46c-3.408,0-6.817.014-10.225-.011-.674,0-.905.213-.9.9q.047,3.852,0,7.706c-.007.65.165.923.871.92q10.151-.031,20.3,0c.679,0,.9-.214.889-.9q-.05-3.852,0-7.706c.011-.726-.242-.927-.94-.921-3.334.028-6.668.013-10,.013" transform="translate(-39.208 -37.489)" fill="#d53e4f"/><path d="M159.911,169.276c0,1.754.007,3.509,0,5.263-.005,1.093-.334,1.422-1.415,1.424q-3.966.008-7.931,0c-1.024,0-1.371-.347-1.373-1.392q-.013-5.337,0-10.674c0-1.067.356-1.456,1.415-1.465q3.965-.034,7.931,0c1.014.01,1.367.408,1.373,1.431.011,1.8,0,3.607,0,5.411m-2-.042c0-1.359-.01-2.718.006-4.077.005-.47-.17-.672-.65-.669q-2.705.018-5.411,0c-.516,0-.689.208-.686.71q.022,4.04,0,8.079c0,.5.174.716.688.712,1.779-.014,3.558-.017,5.337,0,.553.006.734-.22.725-.753-.023-1.334-.008-2.668-.008-4" transform="translate(-127.05 -138.318)" fill="#d53e4f"/><path d="M55.328,281.349q-5.859,0-11.718,0a3.024,3.024,0,0,1-.808-.061.893.893,0,0,1-.694-.935.86.86,0,0,1,.716-.909,4.185,4.185,0,0,1,.883-.067q11.644,0,23.288,0a6.359,6.359,0,0,1,.667.021c.592.063,1.005.381,1,.988s-.427.913-1.022.959c-.221.017-.445.009-.667.009H55.328" transform="translate(-35.86 -237.924)" fill="#d53e4f"/><path d="M48.42,201.415c1.531,0,3.062,0,4.593,0a4.176,4.176,0,0,1,.881.081.9.9,0,0,1,.75.89.9.9,0,0,1-.722.988,3.774,3.774,0,0,1-.952.1q-4.593.01-9.185,0c-1.144,0-1.66-.323-1.672-1.021s.491-1.039,1.641-1.042c1.556,0,3.111,0,4.667,0" transform="translate(-35.864 -171.531)" fill="#d53e4f"/><path d="M48.354,164.506H43.69a2.2,2.2,0,0,1-1.015-.158.922.922,0,0,1-.551-.962.853.853,0,0,1,.714-.835,6.364,6.364,0,0,1,1.176-.112q4.368-.013,8.737,0a7.41,7.41,0,0,1,1.1.093.871.871,0,0,1,.792.845.9.9,0,0,1-.68,1.014,3.48,3.48,0,0,1-.949.11c-1.555.01-3.11,0-4.664,0" transform="translate(-35.87 -138.335)" fill="#d53e4f"/><path d="M48.383,242.369c-1.677,0-3.355.006-5.032,0-.8,0-1.23-.352-1.236-.958s.418-1.008,1.2-1.011q5.069-.019,10.138,0c.78,0,1.205.394,1.2,1.009s-.438.955-1.235.96c-1.677.009-3.355,0-5.032,0" transform="translate(-35.866 -204.724)" fill="#d53e4f"/></g></svg>