<svg xmlns="http://www.w3.org/2000/svg" xmlns:xlink="http://www.w3.org/1999/xlink" width="102.873" height="97.686" viewBox="0 0 102.873 97.686"><defs><clipPath id="a"><rect width="102.873" height="97.686" fill="#66c2a5"/></clipPath></defs><g clip-path="url(#a)"><path d="M74.177,22.175c.491-.107.721-.519,1.024-.822q6.733-6.714,13.454-13.442c2.425-2.42,4.811-2.429,7.226-.034q2.615,2.593,5.21,5.208c2.387,2.413,2.379,4.8-.045,7.224Q88.128,33.244,75.18,46.15A3.621,3.621,0,0,0,74,48.96q.055,19.22.013,38.44A10.091,10.091,0,0,1,63.626,97.682q-26.587,0-53.173-.006A10.088,10.088,0,0,1,.02,87.279q-.037-38.44,0-76.88A10.094,10.094,0,0,1,10.465.013q26.587-.024,53.173,0A10.068,10.068,0,0,1,74.014,10.435c.022,3.482,0,6.965.013,10.447,0,.424-.141.881.15,1.292M71.314,50.286c-.622.16-.925.693-1.32,1.086C64.744,56.6,59.468,61.809,54.3,67.115a11.737,11.737,0,0,1-5.132,3.2,44.965,44.965,0,0,0-4.8,1.667,28.909,28.909,0,0,1-12.787,2.183c-5.216-.2-10.446-.036-15.669-.057-.97,0-2.337.317-2.3-1.255.036-1.5,1.37-1.251,2.361-1.254,5.759-.017,11.519-.028,17.278.01a1.563,1.563,0,0,0,1.794-1.3c.965-3.063,2.233-6.037,3.085-9.127a17.616,17.616,0,0,1,5.129-7.934c9.1-8.957,18.075-18.039,27.132-27.04a3.59,3.59,0,0,0,1.155-2.828c-.051-4.2-.139-8.4.01-12.589a7.89,7.89,0,0,0-8.262-8.307c-17.5.1-35,.032-52.5.045C5.572,2.537,2.5,5.668,2.5,10.921q0,37.905,0,75.81c0,5.326,3.064,8.423,8.382,8.426,17.412.011,34.825-.071,52.236.051a8.027,8.027,0,0,0,8.45-8.409c-.142-11.7-.044-23.394-.054-35.092,0-.465.161-.973-.2-1.422m20.95-25.038a6.989,6.989,0,0,0-.539-.683c-2.456-2.466-4.941-4.9-7.367-7.4-.671-.69-1.061-.465-1.621.1Q63.109,36.919,43.443,56.538c-.8.792-.639,1.25.066,1.935,2.3,2.24,4.6,4.493,6.811,6.818.854.9,1.378.879,2.247,0,5.93-6,11.911-11.942,17.875-17.9Q80.9,36.928,91.359,26.465a2.5,2.5,0,0,0,.905-1.217m.09-16.567a2.128,2.128,0,0,0-1.687.7c-1.559,1.532-3.093,3.092-4.659,4.617-.56.545-.438.963.062,1.458q3.756,3.723,7.475,7.482c.481.487.832.534,1.325.029,1.59-1.628,3.237-3.2,4.806-4.848a1.816,1.816,0,0,0-.048-2.934c-1.893-1.954-3.836-3.86-5.762-5.783a1.991,1.991,0,0,0-1.513-.723M48.809,67.4a2.69,2.69,0,0,0-.28-.391q-3.3-3.315-6.612-6.621c-.485-.484-.741-.273-.933.286-1.114,3.243-2.243,6.482-3.362,9.723-.308.89-.122,1.329.913.966q4.792-1.677,9.585-3.354c.279-.1.618-.164.69-.61" transform="translate(-0.001 0)" fill="#66c2a5"/><path d="M74.074,50.969q-10.368,0-20.736-.007a8.32,8.32,0,0,1-1.722-.159,1.1,1.1,0,0,1-.9-1.173,1.113,1.113,0,0,1,.9-1.173,6.3,6.3,0,0,1,1.454-.153q21.138-.012,42.276-.006c.223,0,.446,0,.669.013.831.044,1.588.338,1.632,1.248.05,1.024-.775,1.3-1.635,1.376-.488.042-.98.032-1.471.032q-10.234,0-20.469,0" transform="translate(-37.131 -35.358)" fill="#66c2a5"/><path d="M74.19,313.661q-10.442,0-20.883,0c-.446,0-.895.012-1.338-.028-.731-.065-1.323-.345-1.322-1.2,0-.84.562-1.158,1.3-1.242a9.613,9.613,0,0,1,1.07-.031q21.151,0,42.3,0a7.608,7.608,0,0,1,1.591.133,1.072,1.072,0,0,1,.9,1.168,1.061,1.061,0,0,1-.874,1.053,7.751,7.751,0,0,1-1.59.14q-10.576.012-21.151.006" transform="translate(-37.077 -227.792)" fill="#66c2a5"/><path d="M70.276,136.05q8.5,0,17,0a10.346,10.346,0,0,1,1.2.03c.732.086,1.321.419,1.318,1.239s-.572,1.16-1.317,1.235c-.354.036-.713.027-1.07.027q-17.136,0-34.272-.007c-.986,0-2.341.258-2.338-1.255,0-1.5,1.344-1.26,2.338-1.262q8.568-.021,17.136-.007" transform="translate(-37.191 -99.596)" fill="#66c2a5"/><path d="M65.183,179.98q6.223,0,12.446,0a7.375,7.375,0,0,1,1.2.055,1.137,1.137,0,0,1,1.011,1.088,1.048,1.048,0,0,1-.868,1.181,7.783,7.783,0,0,1-1.719.176q-12.045.016-24.089,0a8.57,8.57,0,0,1-1.333-.074c-.74-.117-1.262-.494-1.187-1.334.069-.763.588-1.055,1.29-1.082.534-.02,1.07-.016,1.606-.016H65.183" transform="translate(-37.07 -131.76)" fill="#66c2a5"/><path d="M62.928,94.806q-5.078,0-10.157,0a5.883,5.883,0,0,1-1.325-.105,1.024,1.024,0,0,1-.816-1.081,1.042,1.042,0,0,1,.754-1.13,5.681,5.681,0,0,1,1.449-.159q9.956-.014,19.913,0c.994,0,2.341-.19,2.332,1.281C75.07,95,73.775,94.8,72.818,94.8c-3.3.015-6.593.006-9.89.006" transform="translate(-37.066 -67.584)" fill="#66c2a5"/><path d="M60.124,223.955c2.586,0,5.173,0,7.759,0,.818,0,1.625.127,1.687,1.1.067,1.057-.775,1.344-1.629,1.348q-7.826.037-15.651.005c-.817,0-1.546-.3-1.529-1.3.018-1.04.786-1.155,1.6-1.154q3.88,0,7.759,0" transform="translate(-37.161 -163.952)" fill="#66c2a5"/></g></svg>