<svg xmlns="http://www.w3.org/2000/svg" xmlns:xlink="http://www.w3.org/1999/xlink" width="55.588" height="55.628" viewBox="0 0 55.588 55.628"><defs><clipPath id="a"><rect width="55.588" height="55.628" fill="#abdda4"/></clipPath></defs><g clip-path="url(#a)"><path d="M52.641,6.638a6.53,6.53,0,0,1-.866-.006,2.15,2.15,0,0,0-2.527,1.252,3.39,3.39,0,0,1-4.125,1.324A1.008,1.008,0,0,0,43.87,9.5c-1.141,1.182-1.133,1.15-.353,2.577a22.823,22.823,0,0,1,2.822,9.974,22.568,22.568,0,0,1-3.313,13.078c-.288.475-.172.75.188,1.108q5.324,5.292,10.621,10.612a5.158,5.158,0,0,1,1.747,4.038,4.909,4.909,0,0,1-7.831,3.737,10.592,10.592,0,0,1-1.236-1.1q-5.111-5.1-10.2-10.215a.92.92,0,0,0-1.345-.187,22.163,22.163,0,0,1-18.957,2.07C7.564,42.312,2.261,36.418.474,27.663A22.847,22.847,0,0,1,16.838.945c9.462-2.53,17.57.048,24.1,7.39.449.505.7.545,1.184.061a1.544,1.544,0,0,0,.541-1.845,3.607,3.607,0,0,1,2.216-4.4,3.624,3.624,0,0,1,4.574,1.517,1.532,1.532,0,0,0,1.638.924c1.151-.064,2.309-.019,3.464-.015,1.026,0,1.026.007,1.024,1.061,0,.12-.01.241,0,.361.037.458-.161.655-.628.644-.769-.019-1.54-.005-2.31-.005ZM23.273,44.287A21.14,21.14,0,1,0,2,23.418a21.038,21.038,0,0,0,21.27,20.868M53.6,50.69a3.221,3.221,0,0,0-.988-2.179q-3.4-3.385-6.782-6.79c-.347-.351-.57-.383-.927-.01-1.032,1.076-2.084,2.134-3.163,3.163-.391.373-.393.6-.005.978,2.262,2.228,4.5,4.483,6.746,6.724a3.647,3.647,0,0,0,.725.589A2.893,2.893,0,0,0,53.6,50.69M39.829,43.867c.129-.106.244-.187.343-.284,1.141-1.137,2.271-2.285,3.424-3.41.293-.286.216-.466-.032-.706q-.83-.8-1.631-1.633c-.309-.323-.526-.293-.812.052a24.255,24.255,0,0,1-3.262,3.257c-.368.3-.318.52-.015.812.555.533,1.09,1.086,1.637,1.628.1.1.217.179.349.286M44.581,5.626A1.71,1.71,0,1,0,48,5.635a1.709,1.709,0,1,0-3.418-.009" transform="translate(0 0.001)" fill="#abdda4"/><path d="M45.21,25.5A19.5,19.5,0,1,1,25.718,44.981,19.48,19.48,0,0,1,45.21,25.5M62.634,44.622a16.879,16.879,0,0,0-1.841-7.39c-.215-.42-.357-.509-.691-.133a14.39,14.39,0,0,1-1.07,1.072.646.646,0,0,0-.178.83,3.32,3.32,0,0,1,.286,1.617,3.756,3.756,0,0,1-4.969,3.34c-.373-.113-.69-.25-1.046.112-1.7,1.734-3.427,3.445-5.149,5.159a.726.726,0,0,0-.188.9,3.3,3.3,0,0,1,.251,1.765,3.807,3.807,0,0,1-4.522,3.283A3.715,3.715,0,0,1,40.7,50.4a1.221,1.221,0,0,0-.4-1.485c-1-.938-1.958-1.92-2.913-2.9a.856.856,0,0,0-1.019-.246,3.7,3.7,0,0,1-4.759-1.978.766.766,0,0,0-.778-.5c-.77.012-1.54.02-2.309,0-.566-.017-.748.245-.766.784a18.039,18.039,0,0,0,1.093,7.006A17.416,17.416,0,0,0,48.066,62.229c8.407-1.4,14.479-8.543,14.568-17.607M45.246,27.553a16.552,16.552,0,0,0-5.4.874A17.283,17.283,0,0,0,28.314,40.644c-.12.419-.024.582.414.575.722-.013,1.444-.014,2.165,0a.694.694,0,0,0,.707-.479,3.752,3.752,0,0,1,6.967,2.783.85.85,0,0,0,.257,1.083c1.069,1.04,2.12,2.1,3.165,3.164a.707.707,0,0,0,.886.214,3.455,3.455,0,0,1,2.74-.013.756.756,0,0,0,.949-.222q2.511-2.542,5.055-5.051a.79.79,0,0,0,.215-1,3.537,3.537,0,0,1,.689-3.773,3.214,3.214,0,0,1,3.488-1.195,1.881,1.881,0,0,0,2.363-.792,4.314,4.314,0,0,1,.355-.359c.7-.7.71-.711.088-1.462a17.5,17.5,0,0,0-13.57-6.562m-.954,25.653a1.706,1.706,0,0,0,1.715-1.743,1.747,1.747,0,0,0-1.759-1.722,1.833,1.833,0,0,0-1.743,1.767,1.765,1.765,0,0,0,1.787,1.7m11.04-11.1a1.712,1.712,0,1,0,.027-3.421,1.711,1.711,0,1,0-.027,3.421m-21.991.109a1.663,1.663,0,0,0,1.691,1.758,1.715,1.715,0,0,0,1.741-1.735,1.68,1.68,0,0,0-1.682-1.7,1.62,1.62,0,0,0-1.751,1.681" transform="translate(-22.004 -21.817)" fill="#abdda4"/></g></svg>