<svg xmlns="http://www.w3.org/2000/svg" width="32" height="18.667" viewBox="0 0 32 18.667"><g transform="translate(-4.5 -10.125)"><path d="M35.167,13.351H5.833A1.5,1.5,0,0,1,4.5,11.738h0a1.5,1.5,0,0,1,1.333-1.613H35.167A1.5,1.5,0,0,1,36.5,11.738h0A1.5,1.5,0,0,1,35.167,13.351Z" transform="translate(0)" fill="#fff"/><path d="M35.167,20.1H5.833A1.5,1.5,0,0,1,4.5,18.488h0a1.5,1.5,0,0,1,1.333-1.613H35.167A1.5,1.5,0,0,1,36.5,18.488h0A1.5,1.5,0,0,1,35.167,20.1Z" transform="translate(0 0.97)" fill="#fff"/><path d="M35.167,26.851H5.833A1.5,1.5,0,0,1,4.5,25.238h0a1.5,1.5,0,0,1,1.333-1.613H35.167A1.5,1.5,0,0,1,36.5,25.238h0A1.5,1.5,0,0,1,35.167,26.851Z" transform="translate(0 1.94)" fill="#fff"/></g></svg>